<?xml version="1.0" encoding="UTF-8" standalone="no"?>
<!DOCTYPE svg PUBLIC "-//W3C//DTD SVG 20010904//EN"
              "http://www.w3.org/TR/2001/REC-SVG-20010904/DTD/svg10.dtd">

<svg xmlns="http://www.w3.org/2000/svg"
     width="1.16667in" height="0.733333in"
     viewBox="0 0 175 110">
  <path id="Selection"
        fill="black" stroke="black" stroke-width="1"
        d="M 165.98,94.61
           C 155.97,102.69 137.42,99.83 125.00,100.00
             116.54,100.12 116.26,102.58 109.00,105.55
             102.88,108.05 94.62,109.97 88.00,109.97
             82.18,109.97 72.38,107.80 67.00,105.54
             58.14,101.81 61.02,100.02 50.00,100.00
             50.00,100.00 27.00,100.00 27.00,100.00
             21.30,99.99 17.09,99.80 12.00,96.78
             -0.04,89.62 -3.35,73.67 4.13,62.00
             9.05,54.33 14.61,54.29 17.02,50.73
             18.89,47.96 18.96,39.88 27.02,33.39
             33.09,28.49 38.24,29.24 41.79,26.44
             41.79,26.44 52.04,14.09 52.04,14.09
             61.46,4.95 75.86,-0.47 89.00,0.04
             101.53,0.53 113.97,5.24 122.99,14.04
             122.99,14.04 133.32,26.42 133.32,26.42
             136.37,28.81 139.70,28.06 145.00,30.91
             153.92,35.73 157.19,43.34 158.00,53.00
             176.86,56.95 179.99,83.32 165.98,94.61 Z" />
</svg>
